<?xml version="1.0" encoding="utf-8"?>
<!-- Generator: Adobe Illustrator 12.0.0, SVG Export Plug-In  -->
<!DOCTYPE svg PUBLIC "-//W3C//DTD SVG 1.1//EN" "http://www.w3.org/Graphics/SVG/1.1/DTD/svg11.dtd" [
	<!ENTITY ns_flows "http://ns.adobe.com/Flows/1.0/">
	<!ENTITY ns_svg "http://www.w3.org/2000/svg">
	<!ENTITY ns_xlink "http://www.w3.org/1999/xlink">
]>
<svg  version="1.1" xmlns="&ns_svg;" xmlns:xlink="&ns_xlink;" xmlns:a="http://ns.adobe.com/AdobeSVGViewerExtensions/3.0/"
	 width="783" height="217" viewBox="-0.716 -0.081 783 217" enable-background="new -0.716 -0.081 783 217" xml:space="preserve">
<defs>
</defs>
<path fill="#FFFFFF" stroke="#000000" d="M132.932,26.069l-6.254-0.001v0.148v52.466H113.99V26.216v-0.15h-4.141l-8.667-10.017
	l190.588,0.678v9.426l-0.088-0.063"/>
<path fill="#FFFFFF" stroke="#000000" d="M187.811,26.077l-9.32-0.002l0-0.073l-13.855,14.342l24.954,38.339h-16.414l-17.328-29.488
	L145.62,59.703v18.979h-12.688V26.216 M161.182,26.073l-15.562-0.002l0-0.354v17.991l17.032-18.515L161.182,26.073z"/>
<path fill="#FFFFFF" stroke="#000000" d="M236.512,26.211c3.986,5.442,5.979,12.492,5.979,21.15c0,10.138-2.758,18.069-8.271,23.795
	s-12.885,8.588-22.111,8.588c-9.343,0-16.771-2.848-22.285-8.545s-8.271-13.543-8.271-23.538c0-6.396,0.957-11.765,2.871-16.106
	c0.915-2.048,2.043-3.962,3.387-5.742 M234.155,23.417 M217.849,26.049l-0.833,0.167l-10.833-0.138l-0.359,0.562
	c-2.457,0.882-4.59,2.336-6.4,4.361c-3.205,3.588-4.808,8.999-4.808,16.231c0,7.119,1.646,12.515,4.937,16.188
	s7.469,5.511,12.535,5.511c5.064,0,9.221-1.822,12.469-5.468c3.248-3.645,4.873-9.112,4.873-16.403
	c0-7.204-1.582-12.579-4.744-16.124c-1.837-2.06-4.025-3.521-6.563-4.385L217.849,26.049z"/>
<path fill="#FFFFFF" stroke="#000000" d="M291.682,25.745l-34.416,42.313h35.729v10.625h-51.063V67.245l33.148-40.75v-0.406
	l-38.398-0.005"/>
<polyline fill="#FFFFFF" stroke="#000000" points="322.333,105.588 280.082,105.584 280.082,106.016 280.082,119.953 
	311.519,119.953 311.519,130.578 280.082,130.578 280.082,147.578 315.082,147.578 315.082,158.203 267.394,158.203 
	267.394,105.699 267.63,105.629 260.792,105.582 251.926,95.41 781.426,95.41 781.176,105.518 760.807,105.717 "/>
<path fill="#FFFFFF" stroke="#000000" d="M339.62,105.529c-2.387,0.799-4.479,2.637-6.227,4.656
	c-2.895,3.346-4.342,8.762-4.342,16.252c0,7.949,1.426,13.609,4.279,16.982c2.853,3.373,6.562,5.061,11.126,5.061
	c3.365,0,6.261-1.076,8.687-3.227c2.425-2.15,4.165-5.533,5.221-10.148l12.313,3.875c-1.885,6.871-5.018,11.975-9.4,15.309
	c-4.383,3.336-9.942,5.004-16.68,5.004c-8.337,0-15.189-2.848-20.557-8.545s-8.051-13.486-8.051-23.367
	c0-9.016,2.006-16.295,6.02-21.836 M367.61,105.713c1.16,2.008,2.12,4.348,2.879,7.018l-12.563,3
	c-0.742-3.264-2.289-5.84-4.642-7.729c-1.177-0.945-2.351-1.885-3.78-2.357"/>
<path fill="#FFFFFF" stroke="#000000" d="M424.441,105.363c1.028,2.318,1.543,4.869,1.543,7.652c0,4.709-1.383,8.598-4.148,11.666
	s-6.898,5.004-12.4,5.803c2.74,1.602,5.002,3.359,6.786,5.275c1.783,1.916,4.188,5.316,7.214,10.205l7.674,12.266h-15.17
	l-9.158-13.682c-3.262-4.891-5.494-7.971-6.695-9.244c-1.202-1.271-2.476-2.145-3.82-2.617c-1.345-0.471-3.476-0.707-6.394-0.707
	h-2.575v26.25h-12.688v-52.518 M387.182,105.592l0.114,16.389h9.385c6.084,0,9.884-0.258,11.397-0.771s2.699-1.398,3.557-2.656
	c0.857-1.256,1.286-2.828,1.286-4.713c0-2.113-0.564-3.82-1.692-5.119c-1.129-1.299-2.365-2.535-4.422-2.879"/>
<path fill="#FFFFFF" stroke="#000000" d="M501.727,105.729v52.627H489.04v-52.889"/>
<path fill="#FFFFFF" stroke="#000000" d="M482.691,106.042v22.795c0,7.541-0.343,12.867-1.028,15.98s-1.948,5.74-3.79,7.883
	s-4.304,3.848-7.387,5.119c-3.084,1.27-7.109,1.906-12.077,1.906c-5.996,0-10.542-0.693-13.64-2.078s-5.546-3.184-7.345-5.398
	c-1.799-2.213-2.983-4.533-3.554-6.961c-0.828-3.598-1.242-8.91-1.242-15.938v-23.314 M445.316,106.038v23.844
	c0,5.4,0.156,8.902,0.471,10.502c0.541,2.572,1.832,4.637,3.872,6.193c2.039,1.557,4.827,2.336,8.364,2.336
	c3.594,0,6.304-0.736,8.13-2.207c1.825-1.473,2.923-3.279,3.294-5.422s0.557-5.701,0.557-10.674v-24.711"/>
<path fill="#FFFFFF" stroke="#000000" d="M537.542,106.043v52.188h-12.688v-52.188"/>
<path fill="#FFFFFF" stroke="#000000" d="M620.807,105.467l-0.039,52.764h-11.75l-0.031-49.445l-12.464,49.445h-12.228
	l-12.371-49.445l-0.031,49.445h-11.75l0.039-52.264 M581.682,105.717l8.805,32.13l8.547-32.273"/>
<path fill="#FFFFFF" stroke="#000000" d="M638.115,106.043v13.938h31.438v10.625h-31.438v17h35v10.625h-47.688v-52.389"/>
<path fill="#FFFFFF" stroke="#000000" d="M725.893,105.217v53.014h-12.699l-25.488-41.246v41.246h-11.75v-52.264 M694.708,105.902
	l19.435,31.631v-32.191"/>
<path fill="#FFFFFF" stroke="#000000" d="M761.138,106.043v52.188h-12.688v-52.188"/>
<g>
	<g>
		<g enable-background="new    ">
			<g>
				<polygon fill="#DACFCF" points="94.873,127.653 72.08,115.255 72.714,114.491 95.507,126.891 				"/>
			</g>
			<g enable-background="new    ">
				<defs>
					<path id="XMLID_127_" enable-background="new    " d="M71.248,113.441l22.793,12.399c0.542,0.294,1.033,0.643,1.466,1.05
						l-22.793-12.399C72.281,114.084,71.789,113.736,71.248,113.441z"/>
				</defs>
				<clipPath id="XMLID_152_">
					<use xlink:href="#XMLID_127_" />
				</clipPath>
				<g clip-path="url(#XMLID_152_)" enable-background="new    ">
					<path fill="#D1C4C4" d="M95.507,126.891l-22.793-12.399c-0.433-0.407-0.925-0.755-1.466-1.05l22.793,12.399
						C94.583,126.135,95.074,126.483,95.507,126.891"/>
				</g>
			</g>
			<g enable-background="new    ">
				<defs>
					<path id="XMLID_126_" enable-background="new    " d="M70.761,114.311l22.793,12.399c-2.742-1.491-6.948-1.502-11.219-0.901
						c-7.583,1.065-15.366,4.059-15.496,4.108l-22.793-12.399c0.13-0.05,7.913-3.043,15.496-4.108
						C63.813,112.81,68.019,112.819,70.761,114.311z"/>
				</defs>
				<clipPath id="XMLID_153_">
					<use xlink:href="#XMLID_126_" />
				</clipPath>
				<g clip-path="url(#XMLID_153_)" enable-background="new    ">
					<path fill="#DCD3D2" d="M66.84,129.917l-22.793-12.399c0.13-0.05,7.913-3.043,15.496-4.108
						c3.301-0.464,6.563-0.563,9.141,0.104l22.793,12.399c-2.577-0.668-5.84-0.568-9.141-0.104
						C74.753,126.874,66.97,129.867,66.84,129.917"/>
					<path fill="#DBD0D0" d="M91.476,125.913l-22.793-12.399c0.645,0.167,1.246,0.382,1.795,0.651l22.793,12.399
						C92.723,126.295,92.121,126.08,91.476,125.913"/>
					<path fill="#D9CECD" d="M93.271,126.564l-22.793-12.399c0.096,0.047,0.19,0.096,0.283,0.146l22.793,12.399
						C93.462,126.66,93.368,126.611,93.271,126.564"/>
				</g>
			</g>
			<g>
				<polygon fill="#E0D7D6" points="65.165,130.576 42.372,118.177 44.046,117.518 66.84,129.917 				"/>
			</g>
			<g enable-background="new    ">
				<defs>
					<path id="XMLID_125_" enable-background="new    " d="M68.265,128.413l-22.793-12.398
						C70.589,87.679,78.618,64.204,80.907,49.42c2.537-16.338-1.193-25.962-1.233-26.051l22.793,12.399
						c0.04,0.089,3.77,9.713,1.233,26.051C101.411,76.603,93.382,100.078,68.265,128.413z"/>
				</defs>
				<clipPath id="XMLID_154_">
					<use xlink:href="#XMLID_125_" />
				</clipPath>
				<g clip-path="url(#XMLID_154_)" enable-background="new    ">
					<path fill="#D7CBCB" d="M68.265,128.413l-22.793-12.398c0.091-0.104,0.182-0.206,0.273-0.309l22.793,12.399
						C68.448,128.208,68.357,128.311,68.265,128.413"/>
					<path fill="#D6CAC9" d="M68.539,128.105l-22.793-12.399c5.29-5.99,9.815-11.761,13.685-17.277l22.793,12.399
						C78.354,116.345,73.828,122.115,68.539,128.105"/>
					<path fill="#D4C8C7" d="M82.224,110.828L59.43,98.429c3.829-5.458,7.016-10.666,9.664-15.59l22.793,12.399
						C89.239,100.162,86.052,105.371,82.224,110.828"/>
					<path fill="#D3C6C6" d="M91.888,95.238L69.094,82.839c3.035-5.641,5.363-10.908,7.143-15.75L99.03,79.488
						C97.25,84.33,94.922,89.598,91.888,95.238"/>
					<path fill="#D1C4C4" d="M99.03,79.488L76.237,67.089c2.488-6.771,3.902-12.709,4.67-17.669
						c2.537-16.338-1.193-25.962-1.233-26.051l22.793,12.399c0.04,0.089,3.77,9.713,1.233,26.051
						C102.932,66.779,101.518,72.717,99.03,79.488"/>
				</g>
			</g>
			<g>
				<polygon fill="#DFD6D5" points="22.793,130.143 0,117.743 0.881,117.775 23.674,130.175 				"/>
			</g>
			<g enable-background="new    ">
				<defs>
					<path id="XMLID_124_" enable-background="new    " d="M59.919,1.42c7.598,4.133,15.195,8.266,22.793,12.399
						c6.423,3.494,13.025,10.819,19.755,21.949L79.674,23.369C72.945,12.239,66.342,4.914,59.919,1.42z"/>
				</defs>
				<clipPath id="XMLID_155_">
					<use xlink:href="#XMLID_124_" />
				</clipPath>
				<g clip-path="url(#XMLID_155_)" enable-background="new    ">
					<path fill="#D1C4C4" d="M102.467,35.768L79.674,23.369C72.945,12.239,66.342,4.914,59.919,1.42l22.793,12.399
						C89.136,17.313,95.738,24.638,102.467,35.768"/>
				</g>
			</g>
			<g enable-background="new    ">
				<defs>
					<path id="XMLID_123_" enable-background="new    " d="M59.47,2.3c7.598,4.133,15.195,8.266,22.793,12.399
						c-3.512-1.91-6.958-2.632-10.329-2.158c-0.998,0.14-1.988,0.385-2.972,0.734C40.795,23.276,25.849,115.754,23.894,128.684
						c-0.072,0.494-0.146,0.992-0.22,1.491L0.881,117.775c0.073-0.499,0.147-0.997,0.22-1.491
						C3.055,103.354,18.002,10.876,46.169,0.875c0.983-0.349,1.974-0.594,2.971-0.734C52.512-0.333,55.958,0.389,59.47,2.3z"/>
				</defs>
				<clipPath id="XMLID_156_">
					<use xlink:href="#XMLID_123_" />
				</clipPath>
				<g clip-path="url(#XMLID_156_)" enable-background="new    ">
					<path fill="#D1C4C4" d="M23.674,130.175L0.881,117.775c0.073-0.499,0.147-0.997,0.22-1.491
						c1.207-7.985,7.37-46.313,18.542-76.814l22.793,12.399c-11.172,30.501-17.335,68.829-18.542,76.814
						C23.822,129.178,23.748,129.676,23.674,130.175"/>
					<path fill="#D3C6C6" d="M42.436,51.869L19.643,39.47c2.513-6.861,5.28-13.327,8.301-18.961l22.793,12.399
						C47.716,38.542,44.949,45.008,42.436,51.869"/>
					<path fill="#D4C8C7" d="M50.737,32.908L27.944,20.508c1.493-2.786,3.049-5.368,4.667-7.695l22.793,12.399
						C53.786,27.539,52.23,30.122,50.737,32.908"/>
					<path fill="#D6CAC9" d="M55.404,25.212L32.61,12.813c1.122-1.614,2.273-3.105,3.455-4.455l22.793,12.399
						C57.677,22.107,56.525,23.599,55.404,25.212"/>
					<path fill="#D7CBCB" d="M58.859,20.757L36.065,8.358c0.959-1.096,1.938-2.1,2.936-3.001l22.793,12.399
						C60.796,18.657,59.818,19.661,58.859,20.757"/>
					<path fill="#D9CECD" d="M61.794,17.756L39.001,5.356c0.879-0.794,1.772-1.508,2.682-2.138l22.793,12.399
						C63.567,16.247,62.673,16.962,61.794,17.756"/>
					<path fill="#DBD0D0" d="M64.477,15.618L41.683,3.218c1.024-0.709,2.068-1.31,3.131-1.794l22.793,12.399
						C66.544,14.307,65.5,14.908,64.477,15.618"/>
					<path fill="#DCD3D2" d="M67.608,13.823L44.814,1.424c0.448-0.204,0.9-0.387,1.355-0.549c0.983-0.349,1.974-0.594,2.971-0.734
						c1.933-0.272,3.89-0.15,5.871,0.363l22.793,12.399c-1.98-0.513-3.938-0.635-5.871-0.363c-0.998,0.14-1.988,0.385-2.972,0.734
						C68.507,13.437,68.056,13.62,67.608,13.823"/>
					<path fill="#DBD0D0" d="M77.805,12.903L55.011,0.504c1.202,0.312,2.413,0.768,3.632,1.367l22.793,12.399
						C80.217,13.67,79.007,13.215,77.805,12.903"/>
					<path fill="#D9CECD" d="M81.436,14.271L58.643,1.871c0.275,0.136,0.551,0.278,0.827,0.429l22.793,12.399
						C81.987,14.549,81.711,14.406,81.436,14.271"/>
				</g>
			</g>
			<g enable-background="new    ">
				<defs>
					<path id="XMLID_122_" enable-background="new    " d="M27.318,104.473L4.524,92.073c10.647-78.761,6.77-89.334,6.582-89.779
						l22.793,12.399C34.087,15.139,37.964,25.712,27.318,104.473z"/>
				</defs>
				<clipPath id="XMLID_157_">
					<use xlink:href="#XMLID_122_" />
				</clipPath>
				<g clip-path="url(#XMLID_157_)" enable-background="new    ">
					<path fill="#D1C4C4" d="M27.318,104.473L4.524,92.073c10.647-78.761,6.77-89.334,6.582-89.779l22.793,12.399
						C34.087,15.139,37.964,25.712,27.318,104.473"/>
				</g>
			</g>
			<g>
				<path fill="#F0EBEB" d="M33.899,14.693l-0.818,0.496c0.191,0.5,4.691,13.542-10.288,114.954l0.881,0.032
					c0.074-0.499,0.147-0.997,0.22-1.491c1.955-12.93,16.901-105.408,45.068-115.409c0.983-0.349,1.974-0.594,2.972-0.734
					c9.395-1.321,19.376,6.647,29.72,23.739c0.486,1.298,13.627,38.667-35.205,92.871l-1.284,1.426l1.675-0.659
					c0.13-0.05,7.913-3.043,15.496-4.108c5.032-0.707,9.974-0.567,12.538,1.845l0.634-0.763c-2.788-2.622-8.013-2.789-13.261-2.052
					c-5.622,0.79-11.271,2.618-13.981,3.574c25.117-28.335,33.146-51.81,35.436-66.594c2.537-16.338-1.193-25.962-1.233-26.051
					C91.911,18.309,81.668,10.213,71.938,11.579c-1.054,0.148-2.101,0.407-3.142,0.777c-12.95,4.595-24.633,25.849-34.713,63.154
					c-2.761,10.215-5.016,20.295-6.765,28.962C37.964,25.712,34.087,15.139,33.899,14.693z"/>
			</g>
		</g>
	</g>
</g>
<g>
	<g>
		<g enable-background="new    ">
			<g>
				<polygon fill="#D1C3C2" points="274.93,215.806 252.137,203.406 252.171,202.441 274.964,214.841 				"/>
			</g>
			<g enable-background="new    ">
				<defs>
					<path id="XMLID_119_" enable-background="new    " d="M253.726,211.569c-7.598-4.133-15.195-8.266-22.793-12.399
						c5.913,3.217,12.955,5.065,21.205,4.236l22.793,12.399C266.68,216.635,259.639,214.786,253.726,211.569z"/>
				</defs>
				<clipPath id="XMLID_158_">
					<use xlink:href="#XMLID_119_" />
				</clipPath>
				<g clip-path="url(#XMLID_158_)" enable-background="new    ">
					<path fill="#D9CECD" d="M253.726,211.569l-22.793-12.399c0.458,0.25,0.924,0.491,1.396,0.724l22.793,12.399
						C254.65,212.061,254.185,211.819,253.726,211.569"/>
					<path fill="#DBD0D0" d="M255.122,212.293l-22.793-12.399c2.156,1.061,4.454,1.938,6.897,2.572l22.793,12.399
						C259.576,214.23,257.278,213.354,255.122,212.293"/>
					<path fill="#DCD3D2" d="M262.02,214.865l-22.793-12.399c3.923,1.019,8.222,1.412,12.911,0.94l22.793,12.399
						C270.241,216.277,265.943,215.883,262.02,214.865"/>
				</g>
			</g>
			<g enable-background="new    ">
				<defs>
					<path id="XMLID_118_" enable-background="new    " d="M226.156,171.915l-22.793-12.399
						c25.379-28.21,30.868-42.503,31.001-49.53c0.057-3.114-0.99-4.42-1.243-4.691l22.793,12.399c0.253,0.271,1.3,1.577,1.244,4.691
						C257.024,129.412,251.535,143.705,226.156,171.915z"/>
				</defs>
				<clipPath id="XMLID_159_">
					<use xlink:href="#XMLID_118_" />
				</clipPath>
				<g clip-path="url(#XMLID_159_)" enable-background="new    ">
					<path fill="#D7CBCB" d="M226.156,171.915l-22.793-12.399c0.783-0.87,1.548-1.729,2.294-2.572l22.793,12.399
						C227.704,170.187,226.939,171.045,226.156,171.915"/>
					<path fill="#D6CAC9" d="M228.45,169.343l-22.793-12.399c7.183-8.133,12.648-15.053,16.778-20.937l22.793,12.399
						C241.099,154.29,235.633,161.21,228.45,169.343"/>
					<path fill="#D4C8C7" d="M245.228,148.406l-22.793-12.399c2.941-4.191,5.205-7.856,6.928-11.059l22.793,12.399
						C250.433,140.55,248.169,144.215,245.228,148.406"/>
					<path fill="#D3C6C6" d="M252.156,137.348l-22.793-12.399c1.467-2.726,2.543-5.116,3.313-7.21l22.793,12.399
						C254.699,132.231,253.623,134.622,252.156,137.348"/>
					<path fill="#D1C4C4" d="M255.468,130.138l-22.793-12.399c1.195-3.25,1.651-5.786,1.688-7.753
						c0.057-3.114-0.99-4.42-1.243-4.691l22.793,12.399c0.253,0.271,1.3,1.577,1.244,4.691
						C257.12,124.352,256.664,126.888,255.468,130.138"/>
				</g>
			</g>
			<g enable-background="new    ">
				<defs>
					<path id="XMLID_117_" enable-background="new    " d="M254.296,210.728c-7.598-4.133-15.195-8.266-22.793-12.398
						c-18.986-10.328-27.24-35.865-28.14-38.813l22.793,12.399C227.056,174.863,235.311,200.4,254.296,210.728z"/>
				</defs>
				<clipPath id="XMLID_160_">
					<use xlink:href="#XMLID_117_" />
				</clipPath>
				<g clip-path="url(#XMLID_160_)" enable-background="new    ">
					<path fill="#D1C4C4" d="M254.296,210.728l-22.793-12.398c-18.986-10.328-27.24-35.865-28.14-38.813l22.793,12.399
						C227.056,174.863,235.311,200.4,254.296,210.728"/>
				</g>
			</g>
			<g>
				<polygon fill="#DFD6D5" points="176.291,212.174 153.497,199.774 154.378,199.798 177.171,212.197 				"/>
			</g>
			<g enable-background="new    ">
				<defs>
					<path id="XMLID_116_" enable-background="new    " d="M213.424,83.448c7.598,4.133,15.195,8.266,22.793,12.399
						c6.412,3.488,12.999,10.784,19.696,21.846l-22.793-12.399C226.423,94.232,219.836,86.936,213.424,83.448z"/>
				</defs>
				<clipPath id="XMLID_161_">
					<use xlink:href="#XMLID_116_" />
				</clipPath>
				<g clip-path="url(#XMLID_161_)" enable-background="new    ">
					<path fill="#D1C4C4" d="M255.914,117.693l-22.793-12.399c-6.698-11.062-13.284-18.358-19.696-21.847l22.793,12.399
						C242.63,99.335,249.216,106.631,255.914,117.693"/>
				</g>
			</g>
			<g enable-background="new    ">
				<defs>
					<path id="XMLID_115_" enable-background="new    " d="M212.96,84.323c7.598,4.133,15.195,8.266,22.793,12.399
						c-3.511-1.91-6.956-2.632-10.325-2.158c-0.997,0.14-1.987,0.385-2.969,0.734c-28.214,10.016-43.156,102.741-45.077,115.463
						c-0.07,0.476-0.14,0.956-0.211,1.437l-22.793-12.399c0.071-0.48,0.142-0.961,0.211-1.437
						c1.921-12.723,16.863-105.447,45.077-115.463c0.983-0.349,1.973-0.594,2.969-0.734C206.004,81.69,209.449,82.413,212.96,84.323
						z"/>
				</defs>
				<clipPath id="XMLID_162_">
					<use xlink:href="#XMLID_115_" />
				</clipPath>
				<g clip-path="url(#XMLID_162_)" enable-background="new    ">
					<path fill="#D1C4C4" d="M177.171,212.197l-22.793-12.399c0.071-0.48,0.142-0.961,0.211-1.437
						c1.188-7.864,7.351-46.297,18.547-76.868l22.793,12.399c-11.197,30.571-17.36,69.004-18.547,76.868
						C177.313,211.236,177.243,211.717,177.171,212.197"/>
					<path fill="#D3C6C6" d="M195.93,133.893l-22.793-12.399c2.512-6.858,5.278-13.322,8.297-18.955l22.793,12.399
						C201.208,120.57,198.442,127.034,195.93,133.893"/>
					<path fill="#D4C8C7" d="M204.228,114.938l-22.793-12.399c1.494-2.788,3.051-5.372,4.669-7.7l22.793,12.399
						C207.278,109.566,205.722,112.15,204.228,114.938"/>
					<path fill="#D6CAC9" d="M208.896,107.237l-22.793-12.399c1.122-1.614,2.273-3.104,3.455-4.455l22.793,12.399
						C211.17,104.133,210.018,105.624,208.896,107.237"/>
					<path fill="#D7CBCB" d="M212.352,102.782l-22.793-12.399c0.959-1.096,1.938-2.1,2.937-3.002l22.793,12.399
						C214.29,100.682,213.311,101.686,212.352,102.782"/>
					<path fill="#D9CECD" d="M215.288,99.78l-22.793-12.399c0.879-0.794,1.773-1.509,2.683-2.139l22.793,12.399
						C217.062,98.271,216.167,98.986,215.288,99.78"/>
					<path fill="#DBD0D0" d="M217.971,97.641l-22.793-12.399c1.025-0.709,2.069-1.311,3.133-1.795l22.793,12.399
						C220.04,96.33,218.996,96.932,217.971,97.641"/>
					<path fill="#DCD3D2" d="M221.104,95.846l-22.793-12.399c0.449-0.204,0.9-0.387,1.355-0.549
						c0.983-0.349,1.973-0.594,2.969-0.734c1.931-0.271,3.887-0.15,5.866,0.363l22.793,12.399c-1.979-0.513-3.935-0.634-5.866-0.363
						c-0.997,0.14-1.987,0.385-2.969,0.734C222.004,95.459,221.552,95.642,221.104,95.846"/>
					<path fill="#DBD0D0" d="M231.295,94.926l-22.793-12.399c1.202,0.312,2.413,0.767,3.631,1.367l22.793,12.399
						C233.708,95.693,232.497,95.238,231.295,94.926"/>
					<path fill="#D9CECD" d="M234.926,96.293l-22.793-12.399c0.275,0.135,0.551,0.278,0.827,0.429l22.793,12.399
						C235.477,96.572,235.202,96.429,234.926,96.293"/>
				</g>
			</g>
			<g enable-background="new    ">
				<defs>
					<path id="XMLID_114_" enable-background="new    " d="M180.82,186.439l-22.793-12.398c10.63-78.698,6.757-89.278,6.576-89.725
						l22.793,12.399C187.578,97.162,191.451,107.742,180.82,186.439z"/>
				</defs>
				<clipPath id="XMLID_163_">
					<use xlink:href="#XMLID_114_" />
				</clipPath>
				<g clip-path="url(#XMLID_163_)" enable-background="new    ">
					<path fill="#D1C4C4" d="M180.82,186.439l-22.793-12.398c10.63-78.698,6.757-89.278,6.576-89.725l22.793,12.399
						C187.578,97.162,191.451,107.742,180.82,186.439"/>
				</g>
			</g>
			<g>
				<path fill="#F0EBEB" d="M226.156,171.915c25.379-28.21,30.868-42.503,31.001-49.53c0.056-3.114-0.99-4.42-1.244-4.691
					c-10.518-17.372-20.761-25.457-30.487-24.09c-1.053,0.148-2.1,0.407-3.142,0.777c-12.942,4.594-24.625,25.848-34.713,63.153
					c-2.756,10.194-5.006,20.252-6.751,28.906c10.63-78.697,6.757-89.277,6.576-89.724l-0.823,0.495
					c0.232,0.608,4.594,13.829-10.069,113.513c-0.137,0.912-0.208,1.415-0.213,1.45l0.881,0.023c0.071-0.48,0.142-0.961,0.211-1.437
					c1.921-12.723,16.863-105.447,45.077-115.463c0.982-0.349,1.973-0.594,2.969-0.734c9.395-1.32,19.384,6.658,29.742,23.771
					c0.08,0.093,1.183,1.174,1.098,4.271c-0.163,5.632-4.385,19.468-30.915,48.911c-0.098,0.636,3.292,12.494,11.063,23.745
					c7.189,10.416,19.715,22.435,38.514,20.544l0.034-0.965C241.086,218.251,227.333,175.771,226.156,171.915z"/>
			</g>
			<g>
				<polygon fill="#D0C3C2" points="186.571,97.212 163.777,84.813 163.777,84.805 186.571,97.204 				"/>
			</g>
			<g>
				<polygon fill="#D0C2C2" points="186.571,97.212 186.571,97.204 186.573,97.21 				"/>
			</g>
		</g>
	</g>
</g>
<line fill="#FFFFFF" stroke="#000000" x1="470.527" y1="105.855" x2="444.841" y2="105.869"/>
<line fill="#FFFFFF" stroke="#000000" x1="488.983" y1="105.86" x2="482.241" y2="105.864"/>
<line fill="#FFFFFF" stroke="#000000" x1="433.138" y1="105.717" x2="424.042" y2="105.602"/>
<line fill="#FFFFFF" stroke="#000000" x1="525.357" y1="105.711" x2="501.159" y2="105.678"/>
<line fill="#FFFFFF" stroke="#000000" x1="560.682" y1="105.717" x2="536.971" y2="105.803"/>
<line fill="#FFFFFF" stroke="#000000" x1="598.807" y1="105.928" x2="581.182" y2="105.967"/>
<line fill="#FFFFFF" stroke="#000000" x1="625.932" y1="105.867" x2="620.807" y2="105.877"/>
<line fill="#FFFFFF" stroke="#000000" x1="676.307" y1="105.846" x2="637.682" y2="105.967"/>
<line fill="#FFFFFF" stroke="#000000" x1="714.432" y1="105.727" x2="694.307" y2="105.789"/>
<line fill="#FFFFFF" stroke="#000000" x1="749.057" y1="105.592" x2="725.682" y2="105.691"/>
<line fill="#FFFFFF" stroke="#000000" x1="349.62" y1="105.592" x2="339.37" y2="105.592"/>
<line fill="#FFFFFF" stroke="#000000" x1="375.06" y1="105.713" x2="367.192" y2="105.576"/>
<line fill="#FFFFFF" stroke="#000000" x1="407.083" y1="105.6" x2="387.182" y2="105.592"/>
</svg>
